<svg width="320" height="320" xmlns="http://www.w3.org/2000/svg">
 <!-- Generator: Sketch 51.3 (57544) - http://www.bohemiancoding.com/sketch -->
 <title>imgHomeResults</title>
 <desc>Created with Sketch.</desc>
 <defs>
  <linearGradient spreadMethod="pad" y2="0" x2="1" y1="0" x1="0" id="svg_1">
   <stop offset="1" stop-color="#29878e"/>
   <stop offset="1" stop-color="#d67871"/>
  </linearGradient>
 </defs>
 <g>
  <title>background</title>
  <rect fill="none" id="canvas_background" height="402" width="582" y="-1" x="-1"/>
 </g>
 <g>
  <title>Layer 1</title>
  <g fill-rule="evenodd" fill="none" id="imgHomeResults">
   <path fill-opacity="0.4" fill="url(#svg_1)" id="inner" d="m259.9998,160c0,55.229 -44.772,100 -100,100c-55.229,0 -100,-44.771 -100,-100c0,-55.228 44.771,-100 100,-100c55.228,0 100,44.772 100,100"/>
   <path fill="#29878e" fill-opacity="0.2" id="outer-2" d="m38.4957,55.9634c-23.978,27.977 -38.496,64.301 -38.496,104.037c0,88.365 71.635,160 160,160c39.736,0 76.059,-14.518 104.036,-38.495l-64.484,-64.485c-11.232,7.815 -24.862,12.413 -39.552,12.413c-38.286,0 -69.433,-31.147 -69.433,-69.433c0,-14.691 4.598,-28.32 12.413,-39.552l-64.484,-64.485zm0.193,4.436l60.426,60.426c-7.563,11.706 -11.548,25.196 -11.548,39.175c0,39.94 32.493,72.433 72.433,72.433c13.979,0 27.468,-3.985 39.174,-11.548l60.426,60.426c-28.034,23.037 -63.274,35.689 -99.6,35.689c-41.936,0 -81.362,-16.331 -111.015,-45.985c-29.654,-29.653 -45.985,-69.079 -45.985,-111.015c0,-36.327 12.652,-71.567 35.689,-99.601z"/>
   <path fill="url(#svg_1)" fill-opacity="0.5" id="outer-1" d="m159.9996,0c-39.735,0 -76.058,14.517 -104.036,38.495l64.484,64.484c11.232,-7.814 24.862,-12.413 39.552,-12.413c38.286,0 69.434,31.148 69.434,69.434c0,14.69 -4.599,28.32 -12.414,39.552l64.484,64.485c23.978,-27.978 38.496,-64.301 38.496,-104.037c0,-88.365 -71.634,-160 -160,-160m0,3c41.936,0 81.363,16.331 111.016,45.984c29.653,29.654 45.984,69.08 45.984,111.016c0,36.326 -12.652,71.567 -35.689,99.601l-60.426,-60.427c7.564,-11.705 11.549,-25.195 11.549,-39.174c0,-39.94 -32.494,-72.434 -72.434,-72.434c-13.979,0 -27.469,3.985 -39.174,11.548l-60.426,-60.426c28.034,-23.036 63.274,-35.688 99.6,-35.688"/>
   <path fill="#29878e" id="icon" d="m195.1934,181.3741c-0.634,3.12 -1.182,5.814 -1.104,8.164c0,0.008 -0.002,0.015 -0.002,0.024c0.134,1.68 -0.512,3.283 -1.884,4.642c-3.741,3.705 -13.158,5.796 -24.696,5.796c-4.044,0 -8.348,-0.257 -12.76,-0.791c-12.349,-1.494 -23.623,-5.221 -30.156,-9.969l-0.296,-0.221c-0.182,-0.139 -0.365,-0.286 -0.544,-0.437c-0.652,-0.55 -0.739,-1.527 -0.192,-2.184c0.546,-0.656 1.518,-0.743 2.17,-0.193c0.141,0.118 0.285,0.234 0.427,0.344l0.246,0.183c6.131,4.452 16.863,7.965 28.713,9.399c4.406,0.534 8.55,0.771 12.344,0.771c11.529,0 19.838,-2.189 22.583,-4.907c0.737,-0.73 1.056,-1.465 0.975,-2.244c-0.002,-0.019 0.001,-0.036 0,-0.054c-0.002,-0.019 -0.007,-0.037 -0.008,-0.056c-0.089,-2.716 0.52,-5.714 1.165,-8.888c1.245,-6.126 2.657,-13.069 0.209,-21.449c-1.984,-6.796 -3.236,-16.595 -3.289,-17.009l-0.022,-0.177l0.018,-0.178c0.117,-1.139 -0.32,-2.274 -1.17,-3.035l-0.207,-0.186l-7.684,-14.601c-0.255,-0.459 -0.672,-0.792 -1.175,-0.938c-0.507,-0.147 -1.04,-0.087 -1.502,0.169l-10.445,5.802c-0.953,0.529 -1.301,1.74 -0.774,2.699l0.712,1.298c0.002,0.004 0.005,0.007 0.008,0.011c0.002,0.004 0.003,0.009 0.005,0.013l2.759,5.027c0.526,0.959 1.729,1.308 2.683,0.779c0.461,-0.257 0.796,-0.679 0.942,-1.188c0.147,-0.51 0.087,-1.047 -0.168,-1.511c-0.412,-0.75 -0.141,-1.693 0.604,-2.107c0.745,-0.413 1.682,-0.141 2.093,0.608c0.653,1.19 0.807,2.564 0.432,3.869c-0.375,1.305 -1.232,2.386 -2.414,3.043c-2.441,1.355 -5.523,0.46 -6.87,-1.995l-2.021,-3.682l-1.993,1.107c-0.158,0.088 -0.215,0.289 -0.128,0.448l5.411,9.86c0.03,0.052 0.088,0.119 0.191,0.149c0.003,0.001 0.006,0.002 0.009,0.003l7.949,-0.394c-0.015,-0.38 -0.041,-0.755 -0.101,-1.118c-0.138,-0.845 0.43,-1.642 1.27,-1.782c0.84,-0.139 1.632,0.433 1.771,1.277c0.679,4.146 -0.905,8.631 -2.582,13.378c-1.873,5.304 -3.811,10.788 -2.939,16.411c0.002,0.012 0.007,0.042 0.015,0.084c0,0 0,0 0,0c0.13,0.67 1.132,5.005 5.508,6.856c0.785,0.332 1.153,1.241 0.823,2.03c-0.247,0.592 -0.819,0.949 -1.42,0.949c-0.2,0 -0.402,-0.039 -0.597,-0.121c-4.696,-1.987 -6.471,-6.077 -7.083,-8.116c-1.038,-0.293 -2.104,-0.431 -3.17,-0.405c-0.408,0.01 -0.816,0.053 -1.222,0.11c0.076,1.932 -0.139,3.884 -0.688,5.796c-0.194,0.679 -0.81,1.121 -1.479,1.121c-0.142,0 -0.285,-0.02 -0.428,-0.061c-0.818,-0.238 -1.289,-1.097 -1.053,-1.92c1.114,-3.881 0.658,-7.968 -1.283,-11.505c-1.941,-3.537 -5.136,-6.102 -8.995,-7.222c-3.858,-1.121 -7.92,-0.662 -11.436,1.29c-3.516,1.953 -6.066,5.167 -7.179,9.049c-0.236,0.822 -1.091,1.296 -1.908,1.059c-0.817,-0.237 -1.289,-1.096 -1.053,-1.919c0.996,-3.472 2.949,-6.496 5.62,-8.789c-3.872,-0.851 -7.927,0.114 -11,2.695c-0.288,0.242 -0.639,0.36 -0.987,0.36c-0.441,0 -0.878,-0.189 -1.183,-0.557c-0.545,-0.657 -0.458,-1.634 0.195,-2.183c4.079,-3.426 9.559,-4.588 14.659,-3.108c0.344,0.1 0.688,0.213 1.023,0.335c0.176,0.064 0.329,0.161 0.464,0.275c4.205,-2.289 9.041,-2.821 13.64,-1.486c4.65,1.35 8.498,4.441 10.837,8.703c0.872,1.588 1.493,3.267 1.862,4.992c0.505,-0.07 1.012,-0.121 1.519,-0.134c0.013,0 0.026,0 0.039,0c0.004,0 0.008,0.001 0.012,0.001c0.902,-0.019 1.803,0.06 2.693,0.219c-0.307,-5.645 1.59,-11.033 3.291,-15.847c0.941,-2.664 1.844,-5.235 2.284,-7.6l-7.775,0.384l-0.098,-0.007c-0.229,-0.018 -0.457,-0.06 -0.678,-0.125c-0.861,-0.249 -1.578,-0.818 -2.02,-1.601l-5.426,-9.888c-0.908,-1.655 -0.309,-3.746 1.337,-4.66l1.998,-1.109c-1.31,-2.448 -0.421,-5.515 2.004,-6.862l10.445,-5.801c1.182,-0.657 2.548,-0.811 3.845,-0.434c1.298,0.376 2.372,1.239 3.025,2.428l0.012,0.024l7.44,14.138c1.4,1.372 2.132,3.311 1.987,5.275c0.173,1.313 1.388,10.27 3.168,16.364c2.663,9.119 1.105,16.784 -0.147,22.943"/>
  </g>
 </g>
</svg>