<svg width="320" height="320" xmlns="http://www.w3.org/2000/svg">
 <!-- Generator: Sketch 51.3 (57544) - http://www.bohemiancoding.com/sketch -->
 <title>imgHomeCoaching</title>
 <desc>Created with Sketch.</desc>
 <defs>
  <radialGradient r="0.5" cy="0.5" cx="0.5" spreadMethod="pad" id="svg_2">
   <stop offset="1" stop-color="#29878e"/>
   <stop offset="1" stop-color="#d67871"/>
  </radialGradient>
  <linearGradient spreadMethod="pad" y2="0" x2="1" y1="0" x1="0" id="svg_3">
   <stop offset="1" stop-color="#29878e"/>
   <stop offset="1" stop-color="#d67871"/>
  </linearGradient>
 </defs>
 <g>
  <title>background</title>
  <rect fill="none" id="canvas_background" height="402" width="582" y="-1" x="-1"/>
 </g>
 <g>
  <title>Layer 1</title>
  <g fill-rule="evenodd" fill="none" id="imgHomeCoaching">
   <path fill-opacity="0.4" fill="url(#svg_2)" id="inner" d="m259.499801,159.500001c0,55.229 -44.771,100 -100,100c-55.229,0 -100,-44.771 -100,-100c0,-55.228 44.771,-100 100,-100c55.229,0 100,44.772 100,100"/>
   <path fill="#29878e" fill-opacity="0.2" id="outer-2" d="m38.4956,55.463401c-23.978,27.977 -38.496,64.301 -38.496,104.037c0,88.365 71.635,160 160,160c39.736,0 76.059,-14.518 104.036,-38.495l-64.484,-64.485c-11.232,7.815 -24.862,12.413 -39.552,12.413c-38.286,0 -69.433,-31.147 -69.433,-69.433c0,-14.691 4.598,-28.32 12.413,-39.552l-64.484,-64.485zm0.193,4.436l60.426,60.426c-7.563,11.706 -11.548,25.196 -11.548,39.175c0,39.94 32.493,72.433 72.433,72.433c13.979,0 27.468,-3.985 39.174,-11.548l60.426,60.426c-28.034,23.037 -63.274,35.689 -99.6,35.689c-41.936,0 -81.362,-16.331 -111.015,-45.985c-29.654,-29.653 -45.985,-69.079 -45.985,-111.015c0,-36.327 12.652,-71.567 35.689,-99.601z"/>
   <path fill="url(#svg_3)" fill-opacity="0.5" id="outer-1" d="m159.9995,-0.499999c-39.735,0 -76.058,14.517 -104.036,38.495l64.484,64.484c11.232,-7.814 24.862,-12.413 39.552,-12.413c38.286,0 69.434,31.148 69.434,69.434c0,14.69 -4.599,28.32 -12.414,39.552l64.484,64.485c23.978,-27.978 38.496,-64.301 38.496,-104.037c0,-88.365 -71.634,-160 -160,-160m0,3c41.936,0 81.363,16.331 111.016,45.984c29.653,29.654 45.984,69.08 45.984,111.016c0,36.326 -12.652,71.567 -35.689,99.601l-60.426,-60.427c7.564,-11.705 11.549,-25.195 11.549,-39.174c0,-39.94 -32.494,-72.434 -72.434,-72.434c-13.979,0 -27.469,3.985 -39.174,11.548l-60.426,-60.426c28.034,-23.036 63.274,-35.688 99.6,-35.688"/>
   <path fill="#29878e" id="icon" d="m149.4287,133.868501l21.142,0c-1.214,-4.787 -5.521,-8.173 -10.571,-8.173c-5.044,0 -9.356,3.387 -10.571,8.173zm10.548,-11.272c0.007,0 0.015,0 0.023,0c0.008,0 0.016,0 0.023,0c0.239,-0.012 0.43,-0.208 0.43,-0.449c0,-0.249 -0.203,-0.451 -0.453,-0.451c-0.25,0 -0.453,0.202 -0.453,0.451c0,0.241 0.191,0.437 0.43,0.449zm-28.672,12.822c0,-0.856 0.696,-1.55 1.555,-1.55l13.382,0c0.605,-3.077 2.25,-5.883 4.661,-7.932c1.875,-1.595 4.133,-2.658 6.533,-3.103c-0.059,-0.219 -0.094,-0.448 -0.094,-0.686c0,-1.46 1.192,-2.648 2.658,-2.648c1.466,0 2.658,1.188 2.658,2.648c0,0.238 -0.034,0.467 -0.094,0.686c2.407,0.446 4.671,1.514 6.549,3.116c2.507,2.138 4.182,5.093 4.718,8.32c0.014,0.086 0.021,0.172 0.02,0.258l-0.003,0.896c-0.002,0.853 -0.698,1.544 -1.555,1.544l-39.433,0c-0.859,0 -1.555,-0.694 -1.555,-1.549zm38.73,27.665c-3.082,-1.317 -6.474,-2.048 -10.035,-2.048c-3.561,0 -6.953,0.731 -10.035,2.048l10.035,9.996l10.035,-9.996zm-10.035,13.737c-2.966,0 -5.378,2.404 -5.378,5.358l0,14.222l3.822,0l0,-7.314c0,-0.856 0.697,-1.55 1.556,-1.55c2.966,0 5.379,-2.403 5.379,-5.358c0,-2.954 -2.413,-5.358 -5.379,-5.358zm28.643,9.649l0,7.054c0,3.277 -2.676,5.943 -5.965,5.943l-13.727,0c-0.859,0 -1.556,-0.694 -1.556,-1.55c0,-0.856 0.697,-1.55 1.556,-1.55l13.727,0c1.574,0 2.854,-1.275 2.854,-2.843l0,-7.054c0,-9.318 -5.057,-17.48 -12.579,-21.91l-9.805,9.767c3.127,1.249 5.342,4.297 5.342,7.852c0,4.135 -2.993,7.585 -6.934,8.315l0,7.457c0,0.856 -0.697,1.549 -1.556,1.549l-6.934,0c-0.859,0 -1.556,-0.693 -1.556,-1.549l0,-15.772c0,-3.555 2.215,-6.603 5.342,-7.852l-9.805,-9.767c-7.522,4.43 -12.579,12.592 -12.579,21.91l0,7.054c0,1.568 1.28,2.843 2.854,2.843l6.8,0c0.859,0 1.556,0.694 1.556,1.55c0,0.856 -0.697,1.55 -1.556,1.55l-6.8,0c-3.289,0 -5.965,-2.666 -5.965,-5.943l0,-7.054c0,-15.734 12.849,-28.534 28.643,-28.534c15.794,0 28.643,12.8 28.643,28.534zm-16.094,-46.195c-0.847,-0.14 -1.649,0.43 -1.79,1.275c-0.877,5.254 -5.402,9.068 -10.759,9.068c-5.357,0 -9.882,-3.814 -10.759,-9.068c-0.141,-0.844 -0.942,-1.416 -1.79,-1.275c-0.847,0.141 -1.42,0.939 -1.279,1.783c0.538,3.224 2.215,6.175 4.72,8.31c2.535,2.16 5.769,3.349 9.108,3.349c3.339,0 6.574,-1.189 9.108,-3.349c2.506,-2.135 4.182,-5.086 4.72,-8.31c0.141,-0.844 -0.432,-1.642 -1.279,-1.783zm16.686,-20.775l-16.536,0c-0.859,0 -1.556,0.694 -1.556,1.55c0,0.856 0.697,1.55 1.556,1.55l16.536,0c1.574,0 2.854,1.275 2.854,2.843l0,53.476c0,0.855 0.696,1.549 1.555,1.549c0.859,0 1.556,-0.694 1.556,-1.549l0,-53.476c0,-3.277 -2.676,-5.943 -5.965,-5.943zm-42.19,3.1l-16.28,0c-1.573,0 -2.854,1.275 -2.854,2.843l0,53.476c0,0.855 -0.696,1.549 -1.555,1.549c-0.86,0 -1.556,-0.694 -1.556,-1.549l0,-53.476c0,-3.277 2.676,-5.943 5.965,-5.943l16.28,0c0.86,0 1.556,0.694 1.556,1.55c0,0.856 -0.696,1.55 -1.556,1.55z"/>
  </g>
 </g>
</svg>