<svg width="321" height="320" xmlns="http://www.w3.org/2000/svg">
 <!-- Generator: Sketch 51.3 (57544) - http://www.bohemiancoding.com/sketch -->
 <title>imgHomeSGPT</title>
 <desc>Created with Sketch.</desc>
 <defs>
  <linearGradient y2="0" x2="1" y1="0" x1="0" id="svg_1">
   <stop offset="1" stop-color="#29878e"/>
   <stop offset="1" stop-color="#d67871"/>
  </linearGradient>
 </defs>
 <g>
  <title>background</title>
  <rect fill="none" id="canvas_background" height="402" width="582" y="-1" x="-1"/>
 </g>
 <g>
  <title>Layer 1</title>
  <g fill-rule="evenodd" fill="none" id="imgHomeSGPT">
   <path fill-opacity="0.4" fill="url(#svg_1)" id="inner" d="m261.999691,160c0,55.228 -44.771,100 -100,100c-55.228,0 -100,-44.772 -100,-100c0,-55.228 44.772,-100 100,-100c55.229,0 100,44.772 100,100"/>
   <path fill="#29878e" fill-opacity="0.2" id="outer-2" d="m40.495491,55.9634c-23.978,27.977 -38.496,64.301 -38.496,104.037c0,88.365 71.635,160 160,160c39.736,0 76.059,-14.518 104.036,-38.495l-64.484,-64.485c-11.232,7.815 -24.862,12.413 -39.552,12.413c-38.286,0 -69.433,-31.147 -69.433,-69.433c0,-14.691 4.598,-28.32 12.413,-39.552l-64.484,-64.485zm0.193,4.436l60.426,60.426c-7.563,11.706 -11.548,25.196 -11.548,39.175c0,39.94 32.493,72.433 72.433,72.433c13.979,0 27.469,-3.985 39.174,-11.548l60.426,60.426c-28.033,23.037 -63.274,35.689 -99.6,35.689c-41.936,0 -81.362,-16.331 -111.015,-45.985c-29.654,-29.653 -45.985,-69.079 -45.985,-111.015c0,-36.327 12.652,-71.567 35.689,-99.601z"/>
   <path fill="url(#svg_1)" fill-opacity="0.5" id="outer-1" d="m161.999391,0c-39.735,0 -76.058,14.517 -104.035,38.495l64.483,64.484c11.232,-7.814 24.862,-12.413 39.552,-12.413c38.286,0 69.434,31.148 69.434,69.434c0,14.69 -4.599,28.32 -12.414,39.552l64.484,64.485c23.978,-27.978 38.496,-64.301 38.496,-104.037c0,-88.365 -71.634,-160 -160,-160m0,3c41.937,0 81.363,16.331 111.016,45.984c29.653,29.654 45.984,69.08 45.984,111.016c0,36.326 -12.652,71.567 -35.689,99.601l-60.426,-60.427c7.564,-11.705 11.549,-25.195 11.549,-39.174c0,-39.94 -32.494,-72.434 -72.434,-72.434c-13.979,0 -27.468,3.985 -39.174,11.548l-60.425,-60.426c28.033,-23.036 63.273,-35.688 99.599,-35.688"/>
   <path fill="#29878e" id="icon" d="m147.799691,174.9647l-7.319,0l0,7.319l7.319,0l0,-2.879l-1.512,1.513c-0.303,0.302 -0.7,0.453 -1.096,0.453c-0.397,0 -0.794,-0.151 -1.097,-0.453l-2.374,-2.375c-0.606,-0.606 -0.606,-1.587 0,-2.193c0.605,-0.605 1.587,-0.605 2.192,0l1.279,1.279l2.608,-2.608l0,-0.056zm6.948,-4.7c0.606,0.605 0.606,1.587 0,2.192l-3.848,3.848l0,7.529c0,0.856 -0.694,1.55 -1.55,1.55l-10.419,0c-0.856,0 -1.55,-0.694 -1.55,-1.55l0,-10.419c0,-0.856 0.694,-1.55 1.55,-1.55l10.419,0c0.442,0 0.84,0.186 1.123,0.483l2.083,-2.083c0.606,-0.606 1.587,-0.606 2.192,0zm1.877,-7.192c0,-0.856 -0.694,-1.55 -1.55,-1.55l-16.189,0c-0.856,0 -1.55,0.694 -1.55,1.55c0,0.856 0.694,1.55 1.55,1.55l16.189,0c0.856,0 1.55,-0.694 1.55,-1.55zm4.739,-10.381c0,-0.856 -0.694,-1.55 -1.55,-1.55l-20.928,0c-0.856,0 -1.55,0.694 -1.55,1.55c0,0.856 0.694,1.551 1.55,1.551l20.928,0c0.856,0 1.55,-0.695 1.55,-1.551zm7.186,-10.38c0,-0.856 -0.694,-1.55 -1.55,-1.55l-10.555,0c-0.856,0 -1.551,0.694 -1.551,1.55c0,0.856 0.695,1.55 1.551,1.55l10.555,0c0.856,0 1.55,-0.694 1.55,-1.55zm35.35,33.329c0,-5.072 -1.816,-9.983 -5.112,-13.828c-1.08,-1.26 -2.297,-2.381 -3.62,-3.346c-0.011,-0.008 -0.023,-0.015 -0.033,-0.023c-0.011,-0.007 -0.02,-0.016 -0.031,-0.024c-2.654,-1.923 -5.732,-3.221 -8.992,-3.756c-0.209,-0.034 -0.404,-0.109 -0.577,-0.217c-0.001,-0.001 -0.003,-0.003 -0.003,-0.003c-0.041,-0.026 -0.081,-0.053 -0.119,-0.083c-0.002,-0.001 -0.003,-0.002 -0.005,-0.003c-0.038,-0.03 -0.074,-0.061 -0.109,-0.094c-0.001,-0.001 -0.003,-0.002 -0.004,-0.003c-0.035,-0.034 -0.069,-0.069 -0.101,-0.106l-0.002,-0.001c-0.032,-0.037 -0.063,-0.076 -0.092,-0.116c-0.029,-0.04 -0.055,-0.082 -0.08,-0.125l-0.001,-0.001c-0.024,-0.041 -0.046,-0.083 -0.066,-0.126c-0.001,-0.003 -0.002,-0.005 -0.003,-0.008c-0.019,-0.04 -0.035,-0.081 -0.05,-0.123c-0.002,-0.007 -0.005,-0.013 -0.007,-0.02c-0.013,-0.037 -0.024,-0.075 -0.034,-0.114c-0.003,-0.012 -0.007,-0.024 -0.009,-0.036c-0.008,-0.034 -0.014,-0.068 -0.02,-0.103c-0.003,-0.018 -0.006,-0.035 -0.008,-0.053c-0.004,-0.031 -0.006,-0.062 -0.008,-0.092c-0.002,-0.022 -0.003,-0.045 -0.004,-0.067c0,-0.012 -0.001,-0.023 -0.001,-0.035l0,-4.68c0,-0.022 0.002,-0.044 0.003,-0.065c-0.001,-0.023 -0.003,-0.045 -0.003,-0.067c0,-0.856 0.694,-1.55 1.55,-1.55l1.774,0c0.357,0 0.647,-0.29 0.647,-0.647l0,-3.076c0,-0.357 -0.29,-0.647 -0.647,-0.647l-10.985,0c-0.357,0 -0.647,0.29 -0.647,0.647l0,3.076c0,0.357 0.29,0.647 0.647,0.647l1.774,0c0.857,0 1.551,0.694 1.551,1.55c0,0.022 -0.003,0.043 -0.004,0.065c0.001,0.022 0.004,0.044 0.004,0.067l0,4.68c0,0.011 -0.002,0.021 -0.002,0.032c-0.001,0.025 -0.002,0.05 -0.004,0.075c-0.002,0.028 -0.004,0.056 -0.007,0.083c-0.003,0.021 -0.006,0.042 -0.01,0.063c-0.005,0.031 -0.011,0.063 -0.018,0.093c-0.003,0.016 -0.007,0.031 -0.011,0.046c-0.01,0.035 -0.02,0.071 -0.031,0.105c-0.004,0.01 -0.007,0.019 -0.011,0.029c-0.014,0.039 -0.029,0.077 -0.046,0.114c-0.002,0.006 -0.005,0.011 -0.008,0.016c-0.019,0.041 -0.039,0.08 -0.061,0.119c-0.002,0.003 -0.004,0.006 -0.006,0.009c-0.023,0.04 -0.049,0.079 -0.076,0.117c-0.001,0.002 -0.003,0.004 -0.004,0.006c-0.028,0.038 -0.057,0.075 -0.088,0.11c-0.002,0.002 -0.004,0.005 -0.006,0.007c-0.031,0.035 -0.063,0.068 -0.096,0.1c-0.003,0.003 -0.006,0.005 -0.009,0.008c-0.033,0.031 -0.068,0.061 -0.105,0.089c-0.002,0.003 -0.006,0.005 -0.009,0.008c-0.037,0.028 -0.075,0.055 -0.114,0.08c-0.003,0.001 -0.005,0.003 -0.008,0.004c-0.04,0.026 -0.082,0.049 -0.126,0.072c0,0 -0.001,0 -0.002,0.001c-0.138,0.068 -0.287,0.117 -0.444,0.142c-4.915,0.807 -9.417,3.346 -12.678,7.15c-3.296,3.845 -5.111,8.756 -5.111,13.828c0,11.722 9.536,21.259 21.259,21.259c11.722,0 21.259,-9.537 21.259,-21.259zm3.1,0c0,13.432 -10.928,24.359 -24.359,24.359c-13.432,0 -24.36,-10.927 -24.36,-24.359c0,-5.812 2.081,-11.439 5.858,-15.846c3.447,-4.021 8.107,-6.807 13.233,-7.94l0,-1.982l-0.224,0c-2.067,0 -3.748,-1.681 -3.748,-3.747l0,-3.076c0,-2.066 1.681,-3.747 3.748,-3.747l10.985,0c2.067,0 3.748,1.681 3.748,3.747l0,3.076c0,2.066 -1.681,3.747 -3.748,3.747l-0.224,0l0,1.982c2.763,0.611 5.391,1.702 7.766,3.208l2.596,-3.573l-1.767,-1.285c-0.693,-0.503 -0.846,-1.472 -0.343,-2.165c0.503,-0.693 1.472,-0.846 2.165,-0.343l6.044,4.391c0.692,0.503 0.846,1.473 0.343,2.165c-0.304,0.418 -0.776,0.639 -1.256,0.639c-0.316,0 -0.635,-0.096 -0.91,-0.296l-1.767,-1.284l-2.597,3.574c1.061,0.88 2.053,1.851 2.959,2.909c3.778,4.407 5.858,10.034 5.858,15.846zm-24.359,-16.889c-0.857,0 -1.551,0.694 -1.551,1.55c0,0.856 0.694,1.55 1.551,1.55c7.603,0 13.788,6.186 13.788,13.789c0,7.603 -6.185,13.788 -13.788,13.788c-7.603,0 -13.789,-6.185 -13.789,-13.788c0,-3.156 1.061,-6.151 3.01,-8.586l7.626,7.626c-0.092,0.304 -0.143,0.626 -0.143,0.96c0,1.817 1.478,3.296 3.296,3.296c1.817,0 3.295,-1.479 3.295,-3.296c0,-1.817 -1.478,-3.296 -3.295,-3.296c-0.334,0 -0.656,0.051 -0.96,0.144l-8.784,-8.784c-0.024,-0.024 -0.049,-0.045 -0.074,-0.067c-0.609,-0.537 -1.538,-0.516 -2.12,0.066c-3.193,3.193 -4.951,7.432 -4.951,11.937c0,9.313 7.576,16.889 16.889,16.889c9.312,0 16.889,-7.576 16.889,-16.889c0,-9.313 -7.577,-16.889 -16.889,-16.889zm-42.16,-17.99l7.319,0l0,-2.879l-1.512,1.512c-0.291,0.291 -0.685,0.454 -1.096,0.454c-0.412,0 -0.806,-0.163 -1.097,-0.454l-2.374,-2.375c-0.606,-0.605 -0.606,-1.587 0,-2.192c0.605,-0.605 1.587,-0.605 2.192,0l1.279,1.279l2.608,-2.608l0,-0.056l-7.319,0l0,7.319zm-3.1,1.55l0,-10.42c0,-0.856 0.694,-1.55 1.55,-1.55l10.419,0c0.442,0 0.84,0.186 1.123,0.483l2.083,-2.083c0.606,-0.605 1.587,-0.605 2.192,0c0.606,0.606 0.606,1.587 0,2.193l-3.848,3.848l0,7.529c0,0.856 -0.694,1.55 -1.55,1.55l-10.419,0c-0.856,0 -1.55,-0.694 -1.55,-1.55zm26.546,56.133c0,0.856 -0.694,1.55 -1.55,1.55l-29.432,0c-3.278,0 -5.945,-2.666 -5.945,-5.944l0,-68.106c0,-3.278 2.667,-5.945 5.945,-5.945l45.301,0c3.278,0 5.945,2.667 5.945,5.945l0,5.986c0,0.856 -0.694,1.55 -1.55,1.55c-0.857,0 -1.55,-0.694 -1.55,-1.55l0,-5.986c0,-1.569 -1.276,-2.844 -2.845,-2.844l-45.301,0c-1.569,0 -2.845,1.275 -2.845,2.844l0,68.106c0,1.568 1.276,2.844 2.845,2.844l29.432,0c0.856,0 1.55,0.694 1.55,1.55z"/>
  </g>
 </g>
</svg>