<svg width="320" height="320" xmlns="http://www.w3.org/2000/svg">
 <!-- Generator: Sketch 51.3 (57544) - http://www.bohemiancoding.com/sketch -->
 <title>imgHomeTraining</title>
 <desc>Created with Sketch.</desc>
 <defs>
  <linearGradient y2="0" x2="1" y1="0" x1="0" id="svg_2">
   <stop offset="1" stop-color="#29878e"/>
   <stop offset="1" stop-color="#d67871"/>
  </linearGradient>
 </defs>
 <g>
  <title>background</title>
  <rect fill="none" id="canvas_background" height="402" width="582" y="-1" x="-1"/>
 </g>
 <g>
  <title>Layer 1</title>
  <g fill-rule="evenodd" fill="none" id="imgHomeTraining">
   <path fill-opacity="0.4" fill="url(#svg_2)" id="inner" d="m259.9998,160c0,55.228 -44.771,100 -100,100c-55.229,0 -100,-44.772 -100,-100c0,-55.228 44.771,-100 100,-100c55.229,0 100,44.772 100,100"/>
   <path fill="url(#svg_2)" fill-opacity="0.15" id="outer-2" d="m38.4957,55.9634c-23.978,27.977 -38.496,64.301 -38.496,104.037c0,88.365 71.635,160 160,160c39.736,0 76.059,-14.518 104.036,-38.495l-64.484,-64.485c-11.232,7.815 -24.862,12.413 -39.552,12.413c-38.286,0 -69.433,-31.147 -69.433,-69.433c0,-14.691 4.598,-28.32 12.413,-39.552l-64.484,-64.485zm0.193,4.436l60.426,60.426c-7.563,11.706 -11.548,25.196 -11.548,39.175c0,39.94 32.493,72.433 72.433,72.433c13.979,0 27.468,-3.985 39.174,-11.548l60.426,60.426c-28.034,23.037 -63.274,35.689 -99.6,35.689c-41.936,0 -81.362,-16.331 -111.015,-45.985c-29.654,-29.653 -45.985,-69.079 -45.985,-111.015c0,-36.327 12.652,-71.567 35.689,-99.601z"/>
   <path fill="url(#svg_2)" fill-opacity="0.5" id="outer-1" d="m159.9996,0c-39.735,0 -76.058,14.517 -104.036,38.495l64.484,64.484c11.232,-7.814 24.862,-12.413 39.552,-12.413c38.286,0 69.434,31.148 69.434,69.434c0,14.69 -4.599,28.32 -12.414,39.552l64.484,64.485c23.978,-27.978 38.496,-64.301 38.496,-104.037c0,-88.365 -71.634,-160 -160,-160m0,3c41.936,0 81.363,16.331 111.016,45.984c29.653,29.654 45.984,69.08 45.984,111.016c0,36.326 -12.652,71.567 -35.689,99.601l-60.426,-60.427c7.564,-11.705 11.549,-25.195 11.549,-39.174c0,-39.94 -32.494,-72.434 -72.434,-72.434c-13.979,0 -27.468,3.985 -39.174,11.548l-60.426,-60.426c28.034,-23.036 63.274,-35.688 99.6,-35.688"/>
   <path fill="#29878e" id="icon" d="m140.7132,148.989l-3.761,-5.347c-0.797,-1.335 -1.218,-2.868 -1.218,-4.437c0,-4.781 3.889,-8.671 8.67,-8.671l25.065,0c4.781,0 8.671,3.89 8.671,8.671c0,1.497 -0.386,2.968 -1.116,4.26l-3.869,5.521c-4.848,-3.08 -10.423,-4.7 -16.219,-4.7c-5.797,0 -11.374,1.622 -16.223,4.703zm33.104,3.658c0.407,-0.07 0.769,-0.3 1.006,-0.638c0,0 4.832,-6.9 4.855,-6.94c1.022,-1.775 1.562,-3.803 1.562,-5.864c0,-6.491 -5.281,-11.771 -11.771,-11.771l-25.065,0c-6.49,0 -11.771,5.28 -11.771,11.771c0,2.152 0.585,4.256 1.693,6.086c0.018,0.031 4.724,6.722 4.724,6.722c0.237,0.337 0.599,0.566 1.005,0.636c0.087,0.015 0.175,0.023 0.263,0.023c0.319,0 0.633,-0.099 0.896,-0.286c4.612,-3.27 10.049,-4.999 15.722,-4.999c5.673,0 11.109,1.728 15.72,4.997c0.337,0.239 0.755,0.333 1.161,0.263zm-16.881,-0.927c0.857,0 1.551,0.694 1.551,1.55c0,0.856 -0.694,1.551 -1.551,1.551c-10.497,0 -19.172,8.204 -19.748,18.679c-0.045,0.825 -0.729,1.465 -1.547,1.465c-0.028,0 -0.057,-0.001 -0.086,-0.003c-0.855,-0.047 -1.51,-0.778 -1.463,-1.633c0.667,-12.117 10.701,-21.609 22.844,-21.609zm41.428,36.973l-4.37,0l0,-15.864l4.37,0l0,5.54l0,4.784l0,5.54zm-7.471,8.206l-4.369,0l0,-13.746l0,-4.784l0,-13.746l4.369,0l0,6.656l0,18.964l0,6.656zm-26.173,-15.297l18.703,0l0,-1.683l-18.703,0l0,1.683zm-14.94,7.091l0,-5.54l0,-4.784l0,-5.54l4.37,0l0,15.864l-4.37,0zm53.869,-11.874l-2.185,0l0,-5.54c0,-0.856 -0.694,-1.55 -1.55,-1.55l-5.92,0l0,-6.656c0,-0.856 -0.694,-1.551 -1.55,-1.551l-7.471,0c-0.856,0 -1.55,0.695 -1.55,1.551l0,13.746l-18.703,0l0,-13.746c0,-0.856 -0.694,-1.551 -1.55,-1.551l-7.47,0c-0.856,0 -1.55,0.695 -1.55,1.551l0,6.656l-5.92,0c-0.857,0 -1.551,0.694 -1.551,1.55l0,5.54l-2.185,0c-0.856,0 -1.55,0.694 -1.55,1.55l0,4.784c0,0.856 0.694,1.55 1.55,1.55l2.185,0l0,5.54c0,0.857 0.694,1.551 1.551,1.551l5.92,0l0,5.105l-12.813,0.001c-7.28,-5.102 -11.613,-13.403 -11.613,-22.301c0,-6.344 2.231,-12.52 6.282,-17.39c0.448,-0.538 0.479,-1.31 0.076,-1.883l-5.346,-7.6l-0.034,-0.055c-1.572,-2.539 -2.402,-5.466 -2.402,-8.466c0,-8.88 7.224,-16.105 16.104,-16.105l25.065,0c8.88,0 16.104,7.225 16.104,16.105c0,2.892 -0.776,5.729 -2.244,8.204l-0.042,0.071l-5.499,7.848c-0.401,0.572 -0.369,1.343 0.078,1.881c0.658,0.79 1.276,1.626 1.839,2.484c0.47,0.715 1.431,0.915 2.147,0.445c0.716,-0.469 0.915,-1.43 0.445,-2.146c-0.409,-0.625 -0.846,-1.239 -1.303,-1.835l5.002,-7.167c1.752,-2.954 2.678,-6.337 2.678,-9.785c0,-10.59 -8.616,-19.205 -19.205,-19.205l-25.065,0c-10.589,0 -19.205,8.615 -19.205,19.205c0,3.577 0.992,7.068 2.866,10.096l4.813,6.858c-4.041,5.271 -6.254,11.773 -6.254,18.44c0,10.086 4.995,19.482 13.363,25.135c0.257,0.174 0.559,0.266 0.868,0.266l14.845,0c0.856,0 1.55,-0.694 1.55,-1.55l0,-8.207l0,-18.964l0,-6.656l4.37,0l0,13.746l0,4.784l0,15.297c0,0.627 0.378,1.192 0.957,1.432c0.199,0.082 0.409,0.124 0.615,0.117l13.88,0c0.856,0 1.55,-0.694 1.55,-1.55c0,-0.856 -0.694,-1.55 -1.55,-1.55l-12.352,0l0,-12.196l18.703,0l0,13.747c0,0.856 0.694,1.55 1.55,1.55l7.471,0c0.856,0 1.55,-0.694 1.55,-1.55l0,-6.656l5.92,0c0.856,0 1.55,-0.694 1.55,-1.551l0,-5.54l2.185,0c0.856,0 1.55,-0.694 1.55,-1.55l0,-4.784c0,-0.856 -0.694,-1.55 -1.55,-1.55z"/>
  </g>
 </g>
</svg>